<svg width="29" height="40" viewBox="0 0 29 40" fill="none" xmlns="http://www.w3.org/2000/svg">
<path d="M5.2417 34.3365C5.2417 36.9685 7.4257 39.0965 10.0577 39.0965C12.6897 39.0965 14.8177 36.9685 14.8177 34.3365C14.8177 31.6485 12.6897 29.5205 10.0577 29.5205C7.4257 29.5205 5.2417 31.6485 5.2417 34.3365ZM13.3057 27.7285C13.3057 25.0965 14.6497 24.4245 18.9057 23.0245C25.4017 21.0085 28.9857 17.8165 28.9857 11.8245C28.9857 2.92048 20.3057 0.400479 12.1297 0.400479C4.7377 0.400479 0.537695 1.91248 0.537695 1.91248L2.1057 8.80048C4.5697 8.24048 8.0977 7.62448 12.1297 7.62448C18.5137 7.62448 21.3697 9.19248 21.3697 11.6005C21.3697 13.0005 21.3697 14.6805 16.7217 16.1365C10.0577 18.2645 6.1377 19.9445 6.6417 27.7285H13.3057Z" fill="white"/>
</svg>
